HIERARCHY
ROOT HipCenter
{
    OFFSET 0.0 0.0 -0.0
    CHANNELS 6 Xposition Yposition Zposition Zrotation Xrotation Yrotation
    JOINT Spine
    {
        OFFSET 0.0 29.451528549194336 0.0
        CHANNELS 3 Zrotation Xrotation Yrotation
        JOINT ShoulderCenter
        {
            OFFSET 0.0 21.694473266601562 0.0
            CHANNELS 3 Zrotation Xrotation Yrotation
            JOINT LeftShoulder
            {
                OFFSET 16.088502883911133 0.0 0.0
                CHANNELS 3 Zrotation Xrotation Yrotation
                JOINT LeftElbow
                {
                    OFFSET 23.002737045288086 0.0 0.0
                    CHANNELS 3 Zrotation Xrotation Yrotation
                    JOINT LeftWrist
                    {
                        OFFSET 20.237377166748047 0.0 0.0
                        CHANNELS 3 Zrotation Xrotation Yrotation
                        JOINT LeftHand
                        {
                            OFFSET 4.022860050201416 0.0 0.0
                            CHANNELS 3 Zrotation Xrotation Yrotation
                            End Site
                            {
                                OFFSET 1.6091442108154297 0.0 0.0
                            }
                        }
                    }
                }
            }
            JOINT RightShoulder
            {
                OFFSET -16.088502883911133 0.0 0.0
                CHANNELS 3 Zrotation Xrotation Yrotation
                JOINT RightElbow
                {
                    OFFSET -23.002737045288086 0.0 0.0
                    CHANNELS 3 Zrotation Xrotation Yrotation
                    JOINT RightWrist
                    {
                        OFFSET -20.237377166748047 0.0 0.0
                        CHANNELS 3 Zrotation Xrotation Yrotation
                        JOINT RightHand
                        {
                            OFFSET -4.022860050201416 0.0 0.0
                            CHANNELS 3 Zrotation Xrotation Yrotation
                            End Site
                            {
                                OFFSET -1.6091442108154297 0.0 0.0
                            }
                        }
                    }
                }
            }
            End Site
            {
                OFFSET 0.0 8.677789688110352 0.0
            }
        }
    }
    JOINT LeftHip
    {
        OFFSET 7.713931083679199 0.0 0.0
        CHANNELS 3 Zrotation Xrotation Yrotation
        JOINT LeftKnee
        {
            OFFSET 0.0 -31.9301815032959 0.0
            CHANNELS 3 Zrotation Xrotation Yrotation
            JOINT LeftAnkle
            {
                OFFSET 0.0 -29.389598846435547 0.0
                CHANNELS 3 Zrotation Xrotation Yrotation
                JOINT LeftFoot
                {
                    OFFSET 0.0 -11.388025283813477 0.0
                    CHANNELS 3 Zrotation Xrotation Yrotation
                    End Site
                    {
                        OFFSET 0.0 0.0 4.555210113525391
                    }
                }
            }
        }
    }
    JOINT RightHip
    {
        OFFSET -7.713931083679199 0.0 0.0
        CHANNELS 3 Zrotation Xrotation Yrotation
        JOINT RightKnee
        {
            OFFSET 0.0 -31.9301815032959 0.0
            CHANNELS 3 Zrotation Xrotation Yrotation
            JOINT RightAnkle
            {
                OFFSET 0.0 -29.389598846435547 0.0
                CHANNELS 3 Zrotation Xrotation Yrotation
                JOINT RightFoot
                {
                    OFFSET 0.0 -11.388025283813477 0.0
                    CHANNELS 3 Zrotation Xrotation Yrotation
                    End Site
                    {
                        OFFSET 0.0 0.0 4.555210113525391
                    }
                }
            }
        }
    }
}
MOTION
Frames: 4
Frame Time: 0.03333333333333333
-3.7539000511169434 -12.075200080871582 -266.7969970703125 -6.043252151231633 13.155208574209986 -179.80609035825316 1.1494440775597372 -2.5517455615256637 0.044446422216450295 -3.7424568441057886e-07 2.2051864024561765e-06 -2.374432454705662 -72.26748577661085 -47.64659211487934 5.240202452196437 -1.6173831235461372e-06 1.7273031608835387e-07 22.424475043810723 -179.9999976634465 -69.3167370633775 -148.5981371686008 0.0 0.0 0.0 46.97455492611726 30.24259163937335 -55.96704400960603 3.14642616382408e-06 6.966955132183192e-06 -113.93238727867356 3.917552494322305e-06 33.08370325454164 -18.506665675535736 -6.361109362927032e-15 4.4139062980501586e-32 -7.95138670365879e-16 -0.6267201827379866 6.063888866519723 27.102463061191916 0.1969181347659725 10.833517434261001 0.9198703204489664 35.018505315490444 41.404304576608375 -21.070780910094328 0.0 0.0 -7.951386703658792e-16 -11.984455275612783 7.7247390168128875 -25.486072832681476 -1.6664868530352763 8.547007450218716 1.3246171413581955 -33.233712435860504 34.944735217640215 27.264033379791 0.0 0.0 -7.951386703658791e-16
-3.7825000286102295 -12.137100219726562 -266.7644958496094 -6.494959901147804 13.351447960973001 179.98074220425943 0.9698928738566943 -2.360779736568124 0.04407834873031383 3.49960207747311e-08 -1.4067171647140394e-07 -1.7713155470042958 -72.27102708223657 -47.902922557676185 4.779927597295978 -2.1897757570446305e-07 1.2951692811870958e-06 22.84664426225554 5.2707823837814396e-05 -87.22489979849979 28.04679500759788 -1.7655625192200634e-31 6.361109362927035e-15 3.1805546814635176e-15 38.54093754057656 23.362255866216003 -52.13751176663545 3.1428128047086926e-06 4.4778855499623005e-06 -99.19705839222722 2.2189455235048487e-06 32.773236665160994 -45.762392193364754 -6.3611093629270335e-15 -4.4139062980501586e-32 7.951386703658792e-16 -1.062511329325052 6.35682679629775 27.248734192346973 0.32684880944884004 11.220614151055837 0.9485304854410853 33.914561223073164 41.06785729984806 -20.11892765735337 0.0 0.0 0.0 -12.500413045396987 7.9727571523842 -25.41341516623665 -1.6162813518456156 8.498596970129462 1.3519584244791525 -34.26397596262818 34.59974736116367 28.098766645276278 0.0 0.0 1.5902773407317584e-15
-3.8389999866485596 -12.426800727844238 -267.7840881347656 -7.211925839770145 14.164109272937424 -178.73547336590505 0.4280138554791806 -2.179882609696897 0.030956517759930663 4.5536018989621456e-07 -1.1491925841885785e-07 -2.840465775653144 -72.99491584244618 -45.29653491835164 3.9536856225105446 -5.902423649567667e-07 -1.2400159553367898e-06 23.358112771674573 179.99999979734204 -74.87686204421274 -136.67986683139105 0.0 -7.951386703658792e-16 0.0 39.566478971496714 24.12196581605454 -52.492833505920224 -1.7080252535459657e-07 -6.131372762224676e-06 -100.90047722564988 -5.129386328799083e-06 15.972898859853654 -37.136989401942394 -6.3611093629270335e-15 1.987846675914698e-16 9.93923337957349e-17 -1.3156502590606285 7.526335428520124 26.907244343793607 -0.3214351859685156 10.974808145185126 1.0205327965591302 34.869442429509014 40.39098847559995 -20.225976358331515 1.5902773407317582e-15 -5.517382872562698e-32 -3.975693351829395e-15 -12.871890889585059 8.699840532396317 -25.33994294739246 -2.669060126351262 9.575837661743174 1.6885076752629644 -31.566394883599973 35.71672623791479 27.294044493098877 0.0 0.0 -7.951386703658791e-16
-4.007699966430664 -12.662899017333984 -267.5513000488281 -7.365086761542786 14.072721241061577 179.4144815488149 0.3826018941860934 -2.1298797850287783 0.010444264149951943 6.755073755317113e-07 -2.3066251457684878e-07 -1.2877264360045506 -72.49406465586803 -46.67656092812763 4.183584497840437 -3.079494395742532e-06 -2.7223640989819205e-07 23.37701700340754 -6.4888344506930735e-06 -63.25800497490332 37.41769317238769 0.0 1.5902773407317584e-15 0.0 37.14303295065498 23.202053187573963 -53.76447280158421 1.3724326154850625e-06 -5.6538298405318754e-08 -96.78480228865249 -1.2670780149431604e-06 13.214436948393558 -9.207604547947707 0.0 0.0 -2.3854160110976376e-15 -1.890539952442693 7.483783528126427 27.818622149685215 -0.36351109150830674 10.942447463648701 1.1894713817665836 33.29860871987023 40.04013493770653 -18.273289506689046 0.0 0.0 7.951386703658792e-16 -13.712317199478356 7.9773181553303685 -25.354363030417275 -2.517034213040325 10.126755935337426 1.9507940390173233 -32.765811827144525 33.41735737300847 27.639189896194992 -4.4139062980501586e-32 -6.361109362927032e-15 -7.95138670365879e-16
